# xmcd
#
# Track frame offsets:
#	150
#	12678
#	26209
#	41205
#	53042
#	65287
#	76429
#	88730
#	99456
#	111829
#	121920
#	135151
#	144931
#	157473
#	171720
#
# Disc length: 2464 seconds
#
# Revision: 1
# Processed by: cddbd v1.5.2PL0 Copyright (c) Steve Scherf et al.
# Submitted via: audiograbber 1.83.01
#
DISCID=d5099e0f
DTITLE=Various Artist - Country Love Songs
DYEAR=1900
DGENRE=country
TTITLE0=Charlie Rich - Behind Closed Doors
TTITLE1=Patti Page - Tennessee Waltz
TTITLE2=Kenny Rogers - For The Good Times
TTITLE3=Billie Jo Spears - Ease the Want in Me
TTITLE4=Faron Young - Sweet Dreams
TTITLE5=Johnny Cash - Oh, Lonesome Me
TTITLE6=Willie Nelson - The Shelter of Your Arms
TTITLE7=Waylon Jennings - Dream Baby (How Long Must I Dream)
TTITLE8=Conway Twitty - Crazy Dreams
TTITLE9=Rita Remington - Would You Lay with Me (In a Field of Stone)?
TTITLE10=Hank Williams - Hey, Good Lookin'
TTITLE11=Jerry Lee Lewis - Lovesick Blues
TTITLE12=Frankie Laine - Dream a Little Dream of Me
TTITLE13=Slim Whitman - Indian Love Call
TTITLE14=Kenny Rodgers - Ruby, Don't Take Your Love to Town
EXTD=
EXTT0=
EXTT1=
EXTT2=
EXTT3=
EXTT4=
EXTT5=
EXTT6=
EXTT7=
EXTT8=
EXTT9=
EXTT10=
EXTT11=
EXTT12=
EXTT13=
EXTT14=
PLAYORDER=
